<svg xmlns="http://www.w3.org/2000/svg" viewBox="0 0 512 512">
  <defs>
    <style>
      .cls-1 {
        fill: #3797a4;
      }

      .cls-2 {
        fill: #8bcdcd;
      }

      .cls-3 {
        fill: #fcf876;
      }

      .cls-4 {
        fill: #cee397;
      }

      .cls-5 {
        fill: #fff;
      }
    </style>
  </defs>
  <title>shoyo logo</title>
  <g id="Layer_2" data-name="Layer 2">
    <path class="cls-1" d="M256.33,504h-.58C120.5,504,10.67,395.19,9,260.33c106.5,116.25,247.31,0,247.31,0S372.58,397.5,256.33,504Z"/>
    <path class="cls-2" d="M502.5,257.25c0,1,0,2,0,3.06-106.5-116.22-246.15,0-246.15,0S139.5,117,255.75,10.5C392,10.5,502.5,121,502.5,257.25Z"/>
    <path class="cls-3" d="M256.33,260.33S115.52,376.58,9,260.33c0-1,0-2,0-3.08C9,121,119.47,10.5,255.75,10.5,139.5,117,256.33,260.33,256.33,260.33Z"/>
    <path class="cls-4" d="M502.48,260.31v0C500.83,395,391.32,503.69,256.33,504c116.25-106.5,0-243.67,0-243.67S396,144.09,502.48,260.31Z"/>
    <path class="cls-5" d="M502.5,260.33h0v0Z"/>
  </g>
</svg>
